# xmcd
#
# Track frame offsets: 
#        150
#        20155
#        36545
#        52202
#        69830
#        87365
#        104795
#        119815
#        133160
#        145170
#        160155
#        174665
#        188417
#        205025
#        221017
#
# Disc length: 9558 seconds
#
# Revision: 0
# Processed by: cddbd v1.5.2PL0 Copyright (c) Steve Scherf et al.
# Submitted via: ExactAudioCopy v0.95b3
#
DISCID=eb25540f
DTITLE=Johnny Cash - American IV: The man comes around
DYEAR=2002
DGENRE=Country
TTITLE0=The man comes around
TTITLE1=Hurt
TTITLE2=Give my love to Rose
TTITLE3=Bridge over troubled water
TTITLE4=I hung my head
TTITLE5=First time i ever saw your face
TTITLE6=Personal Jesus
TTITLE7=In my life
TTITLE8=Sam Hall
TTITLE9=Danny Boy
TTITLE10=Desesperado
TTITLE11=I'm so lonesome i could cry
TTITLE12=Tear stained letter
TTITLE13=Streets of Laredo
TTITLE14=We'll meet again
EXTD=
EXTT0=
EXTT1=
EXTT2=
EXTT3=
EXTT4=
EXTT5=
EXTT6=
EXTT7=
EXTT8=
EXTT9=
EXTT10=
EXTT11=
EXTT12=
EXTT13=
EXTT14=
PLAYORDER=
